<svg id="svg" version="1.1" xmlns="http://www.w3.org/2000/svg" xmlns:xlink="http://www.w3.org/1999/xlink" width="400" height="300.93808630394" viewBox="0, 0, 400,300.93808630394"><g id="svgg"><path id="path0" d="M223.496 33.076 C 223.404 33.224,223.527 33.421,223.769 33.514 C 224.240 33.695,224.641 33.320,224.321 32.999 C 224.049 32.727,223.691 32.760,223.496 33.076 M268.473 78.862 C 261.412 80.080,247.750 89.928,231.339 105.629 C 227.279 109.513,227.131 109.620,226.071 109.459 C 224.794 109.264,220.156 108.458,212.792 107.151 C 209.895 106.638,206.712 106.083,205.719 105.919 C 204.725 105.756,201.339 105.154,198.194 104.583 C 188.334 102.792,184.717 102.139,182.393 101.731 C 180.588 101.413,176.583 100.693,173.965 100.214 C 156.915 97.095,156.374 97.060,154.142 98.960 C 145.105 106.651,142.363 109.059,142.363 109.303 C 142.363 109.620,147.086 111.919,156.659 116.264 C 160.135 117.841,163.995 119.601,165.237 120.174 C 168.288 121.582,169.973 122.355,177.878 125.970 C 181.603 127.673,186.546 129.943,188.864 131.013 C 196.267 134.433,197.565 135.028,198.869 135.598 C 200.287 136.218,200.730 137.028,200.071 137.794 C 199.833 138.072,197.629 140.737,195.176 143.717 C 192.722 146.697,189.476 150.625,187.963 152.445 C 184.058 157.144,168.927 175.570,167.202 177.728 C 163.184 182.754,163.007 182.805,157.863 180.446 C 157.366 180.219,156.080 179.696,155.004 179.285 C 153.928 178.874,152.506 178.298,151.843 178.005 C 145.299 175.104,141.305 173.729,140.564 174.123 C 139.221 174.836,130.883 183.439,131.074 183.914 C 131.171 184.153,131.752 184.579,132.367 184.861 C 132.981 185.142,134.974 186.072,136.795 186.928 C 140.841 188.829,142.345 189.516,148.683 192.353 L 153.649 194.575 157.433 198.264 C 161.110 201.849,161.275 202.066,163.274 205.943 C 170.175 219.320,170.726 220.316,171.236 220.316 C 171.738 220.316,180.587 211.639,180.587 211.146 C 180.587 210.982,178.116 205.948,175.096 199.960 L 169.605 189.074 170.205 188.395 C 170.535 188.022,172.498 186.378,174.567 184.742 C 176.637 183.106,180.079 180.385,182.217 178.694 C 184.355 177.004,187.760 174.334,189.783 172.761 C 191.807 171.189,198.445 165.974,204.535 161.174 C 210.625 156.373,215.922 152.245,216.305 152.001 C 217.519 151.226,215.522 147.510,240.482 196.990 C 247.507 210.917,248.360 212.473,248.978 212.486 C 249.099 212.489,251.434 209.816,254.166 206.546 C 259.953 199.623,259.576 200.891,258.097 193.315 C 256.584 185.563,254.952 177.147,254.492 174.718 C 254.003 172.138,252.929 166.773,252.533 164.936 C 252.373 164.191,251.350 158.977,250.260 153.348 C 247.584 139.534,247.584 139.538,246.079 131.828 C 244.524 123.870,244.209 125.103,249.095 120.018 C 263.282 105.252,273.152 91.427,274.265 84.764 C 274.987 80.436,272.723 78.128,268.473 78.862 M79.384 156.663 C 79.288 157.164,79.376 157.412,79.650 157.412 C 79.876 157.412,80.060 157.149,80.060 156.827 C 80.060 155.938,79.546 155.813,79.384 156.663 M73.472 183.406 C 73.213 183.718,73.232 183.902,73.548 184.164 C 73.885 184.444,73.965 184.365,73.965 183.753 C 73.965 182.876,73.932 182.852,73.472 183.406 M70.563 195.911 C 70.657 196.062,70.563 196.255,70.356 196.339 C 70.127 196.431,70.186 196.501,70.504 196.515 C 70.794 196.528,71.031 196.336,71.031 196.087 C 71.031 195.839,70.887 195.636,70.712 195.636 C 70.537 195.636,70.470 195.760,70.563 195.911 M64.309 222.925 C 63.984 223.250,64.077 223.550,64.560 223.736 C 64.867 223.853,65.011 223.719,65.011 223.316 C 65.011 222.725,64.689 222.545,64.309 222.925 M61.550 235.064 C 61.448 235.229,61.474 235.367,61.608 235.370 C 61.741 235.372,61.648 235.505,61.400 235.666 C 61.014 235.915,61.025 235.958,61.475 235.962 C 61.802 235.965,62.002 235.739,62.002 235.365 C 62.002 234.706,61.839 234.597,61.550 235.064 M68.322 255.813 C 68.322 255.968,68.584 256.075,68.903 256.051 C 69.223 256.027,69.418 255.900,69.337 255.769 C 69.131 255.435,68.322 255.470,68.322 255.813 " stroke="none" fill="#edf1f4" fill-rule="evenodd"></path><path id="path1" d="M156.822 18.796 C 156.483 19.205,156.591 19.263,157.701 19.263 C 158.579 19.263,158.929 19.147,158.843 18.886 C 158.658 18.324,157.266 18.262,156.822 18.796 M163.933 18.560 C 163.508 18.985,163.766 19.263,164.585 19.263 C 165.142 19.263,165.438 19.106,165.438 18.811 C 165.438 18.358,164.321 18.172,163.933 18.560 M231.151 18.811 C 230.832 19.196,230.914 19.263,231.707 19.263 C 232.410 19.263,232.595 19.152,232.464 18.811 C 232.369 18.563,232.119 18.360,231.908 18.360 C 231.698 18.360,231.357 18.563,231.151 18.811 M237.773 18.793 C 237.773 19.142,238.089 19.263,239.002 19.263 C 240.570 19.263,240.466 18.551,238.878 18.417 C 238.037 18.346,237.773 18.436,237.773 18.793 M244.692 23.476 C 245.194 24.456,245.207 24.468,245.410 24.139 C 245.506 23.984,245.297 23.603,244.945 23.291 C 244.308 22.725,244.308 22.726,244.692 23.476 M150.589 24.822 C 150.589 25.075,150.781 25.282,151.016 25.282 C 151.250 25.282,151.389 25.121,151.323 24.925 C 151.141 24.379,150.589 24.302,150.589 24.822 M245.812 25.469 C 245.501 25.781,245.550 27.324,245.878 27.526 C 246.031 27.621,246.237 27.446,246.335 27.136 C 246.544 26.480,246.127 25.154,245.812 25.469 M150.008 27.507 C 149.824 27.988,150.086 31.300,150.328 31.542 C 150.417 31.631,150.489 30.665,150.489 29.396 C 150.489 27.173,150.349 26.621,150.008 27.507 M223.971 30.068 C 223.924 31.603,224.017 32.826,224.188 32.932 C 224.374 33.047,224.387 33.460,224.222 34.035 C 224.077 34.540,224.061 35.250,224.188 35.611 C 224.314 35.972,224.375 38.367,224.324 40.933 C 224.170 48.694,224.632 50.779,227.117 53.543 C 231.697 58.637,238.782 58.544,243.489 53.328 C 246.023 50.521,246.253 49.505,246.350 40.674 C 246.411 35.105,246.514 33.586,246.841 33.378 C 247.181 33.163,247.174 33.117,246.802 33.117 C 245.094 33.117,244.743 34.637,244.716 42.150 C 244.703 45.702,244.613 49.033,244.516 49.553 C 244.303 50.694,240.894 54.542,239.668 55.025 C 233.972 57.267,229.592 55.737,226.469 50.414 L 225.587 48.909 225.533 42.287 C 225.504 38.646,225.335 34.447,225.158 32.957 C 224.981 31.467,224.835 29.605,224.833 28.819 C 224.828 26.000,224.060 27.114,223.971 30.068 M149.950 32.420 C 149.548 38.233,149.969 48.369,150.683 50.068 C 154.605 59.391,166.527 59.733,170.999 50.650 C 171.671 49.284,171.711 48.876,171.758 42.739 C 171.785 39.180,171.884 35.625,171.977 34.838 C 172.107 33.744,172.050 33.409,171.734 33.409 C 170.967 33.409,170.830 34.442,170.657 41.535 C 170.457 49.708,170.193 50.688,167.476 53.344 C 165.916 54.869,161.997 56.503,160.627 56.200 C 152.917 54.493,151.091 51.712,151.091 41.677 C 151.091 38.509,150.937 35.115,150.748 34.136 C 150.393 32.295,150.015 31.483,149.950 32.420 M328.978 191.422 C 328.978 191.670,329.110 192.077,329.270 192.325 C 329.529 192.726,329.562 192.726,329.562 192.325 C 329.562 192.077,329.431 191.670,329.270 191.422 C 329.011 191.021,328.978 191.021,328.978 191.422 M81.339 256.142 L 80.662 256.414 80.662 265.303 C 80.662 273.003,80.723 274.191,81.114 274.191 C 81.440 274.191,81.565 274.526,81.565 275.395 C 81.565 276.057,81.701 276.599,81.866 276.599 C 82.032 276.599,82.167 276.851,82.167 277.159 C 82.167 277.467,82.506 277.973,82.919 278.284 C 83.333 278.594,83.672 279.020,83.672 279.229 C 83.672 279.438,83.817 279.609,83.994 279.609 C 84.411 279.609,85.177 280.374,85.177 280.791 C 85.177 280.969,85.380 281.114,85.628 281.114 C 85.877 281.114,86.080 281.249,86.080 281.415 C 86.080 281.580,86.675 281.716,87.402 281.716 C 88.301 281.716,88.780 281.860,88.898 282.168 C 89.161 282.855,311.813 282.853,311.813 282.165 C 311.813 281.843,312.147 281.716,312.993 281.716 C 314.119 281.716,316.021 280.913,316.025 280.436 C 316.026 280.312,316.170 280.211,316.345 280.211 C 316.820 280.211,318.208 278.589,318.845 277.291 C 319.153 276.662,319.525 275.912,319.672 275.625 C 319.819 275.337,319.940 270.851,319.940 265.655 L 319.940 256.208 318.999 256.020 C 317.479 255.715,82.099 255.837,81.339 256.142 " stroke="none" fill="#5c6b6b" fill-rule="evenodd"></path><path id="path2" d="M89.992 33.793 C 89.992 34.115,89.831 34.231,89.539 34.118 C 89.289 34.023,88.752 34.162,88.345 34.429 C 87.939 34.695,87.388 34.913,87.122 34.913 C 86.557 34.913,85.779 35.617,85.779 36.128 C 85.779 36.329,85.571 36.403,85.299 36.299 C 84.980 36.176,84.768 36.316,84.662 36.718 C 84.576 37.050,84.382 37.321,84.231 37.321 C 84.081 37.321,83.829 37.660,83.672 38.074 C 83.515 38.488,83.176 38.826,82.919 38.826 C 82.642 38.826,82.380 39.191,82.273 39.724 C 82.175 40.218,81.975 40.549,81.829 40.459 C 81.684 40.369,81.565 40.763,81.565 41.335 C 81.565 41.987,81.395 42.439,81.107 42.549 C 80.427 42.810,80.448 150.790,81.128 150.790 C 81.410 150.790,81.565 151.101,81.565 151.668 C 81.565 152.948,81.852 153.499,82.520 153.499 C 82.901 153.499,93.276 163.691,111.854 182.318 C 127.664 198.168,150.070 220.627,161.646 232.227 C 173.222 243.828,182.694 253.530,182.694 253.787 C 182.694 254.714,180.680 254.756,131.979 254.840 C 80.100 254.929,81.460 254.903,80.969 255.820 C 80.682 256.357,80.723 256.381,81.487 256.115 C 82.277 255.841,311.434 255.942,325.508 256.223 C 328.819 256.290,331.223 256.287,330.850 256.217 C 329.668 255.996,330.121 255.483,331.452 255.536 C 333.424 255.614,333.791 255.558,333.710 255.192 C 333.668 255.006,333.825 254.784,334.058 254.699 C 334.354 254.592,334.425 254.697,334.291 255.045 C 334.065 255.634,335.085 255.210,335.481 254.551 C 335.613 254.331,335.465 254.362,335.122 254.628 C 334.581 255.045,334.568 255.040,334.950 254.552 C 335.178 254.263,335.584 254.025,335.853 254.024 C 336.123 254.023,336.749 253.753,337.246 253.424 C 337.743 253.095,338.022 252.825,337.866 252.824 C 337.710 252.823,337.845 252.629,338.167 252.394 C 338.488 252.160,338.768 251.821,338.789 251.642 C 338.809 251.463,338.843 251.173,338.864 250.998 C 338.884 250.823,339.040 250.765,339.210 250.870 C 339.380 250.975,339.499 250.949,339.475 250.812 C 339.237 249.442,339.881 248.218,340.199 249.436 C 340.296 249.807,340.354 249.740,340.396 249.210 C 340.429 248.796,340.516 248.119,340.590 247.705 C 341.061 245.076,341.051 242.889,340.568 242.889 C 340.148 242.889,340.098 242.612,340.230 241.008 C 340.315 239.974,340.311 239.366,340.222 239.658 C 339.995 240.399,339.503 240.002,339.503 239.077 C 339.503 238.531,339.629 238.359,339.940 238.478 C 340.231 238.590,340.320 238.500,340.208 238.209 C 340.116 237.969,339.920 237.773,339.772 237.773 C 339.624 237.773,339.503 237.434,339.503 237.020 C 339.503 236.606,339.362 236.268,339.189 236.268 C 339.016 236.268,338.897 236.099,338.924 235.892 C 339.071 234.755,338.863 233.860,338.450 233.860 C 337.949 233.860,337.828 232.797,338.296 232.508 C 338.462 232.405,338.520 232.517,338.426 232.761 C 338.334 233.001,338.393 233.280,338.558 233.382 C 338.746 233.498,338.798 233.146,338.697 232.434 C 338.610 231.811,338.529 231.132,338.519 230.926 C 338.509 230.719,338.387 230.549,338.249 230.549 C 338.111 230.549,337.998 229.835,337.998 228.961 C 337.998 227.996,337.811 227.104,337.520 226.690 C 337.257 226.314,337.128 225.782,337.234 225.506 C 337.357 225.185,337.178 224.803,336.734 224.439 C 336.242 224.035,336.194 223.921,336.569 224.041 C 336.859 224.134,337.096 224.079,337.096 223.918 C 337.096 223.758,336.960 223.627,336.795 223.627 C 336.629 223.627,336.494 223.164,336.494 222.598 C 336.494 222.033,336.366 221.525,336.209 221.470 C 336.053 221.415,335.894 220.577,335.856 219.609 C 335.811 218.479,335.644 217.794,335.387 217.696 C 335.159 217.608,334.987 217.075,334.984 216.446 C 334.981 215.628,334.906 215.464,334.688 215.801 C 334.438 216.187,334.395 216.176,334.391 215.726 C 334.384 214.851,334.432 214.744,334.793 214.845 C 335.026 214.910,335.016 214.816,334.763 214.559 C 334.556 214.348,334.387 213.744,334.387 213.215 C 334.387 212.638,334.206 212.185,333.935 212.081 C 333.675 211.981,333.484 211.531,333.484 211.020 C 333.484 209.961,333.203 209.132,332.907 209.315 C 332.790 209.387,332.722 208.575,332.755 207.510 C 332.789 206.444,332.710 205.639,332.580 205.719 C 332.280 205.904,331.979 205.137,331.979 204.189 C 331.979 203.789,331.843 203.461,331.678 203.461 C 331.511 203.461,331.377 202.669,331.377 201.688 C 331.377 200.287,331.268 199.872,330.859 199.715 C 330.415 199.545,330.404 199.476,330.783 199.236 C 331.083 199.046,331.105 198.954,330.850 198.951 C 330.634 198.949,330.474 198.563,330.474 198.044 C 330.474 197.415,330.327 197.141,329.990 197.141 C 329.673 197.141,329.570 196.977,329.689 196.665 C 329.790 196.403,329.872 196.124,329.872 196.045 C 329.872 195.966,330.008 195.985,330.173 196.087 C 330.339 196.190,330.474 196.130,330.474 195.955 C 330.474 195.779,330.339 195.636,330.173 195.636 C 330.008 195.636,329.872 195.244,329.872 194.765 C 329.872 194.269,329.678 193.820,329.421 193.721 C 329.172 193.626,328.971 193.307,328.974 193.012 C 328.978 192.550,329.023 192.538,329.303 192.927 C 329.563 193.288,329.584 193.258,329.406 192.777 C 329.285 192.445,329.121 191.803,329.043 191.350 C 328.957 190.848,328.768 190.600,328.559 190.717 C 328.357 190.830,328.371 190.742,328.593 190.503 C 329.078 189.980,329.078 188.808,328.593 188.612 C 328.297 188.492,328.299 188.455,328.601 188.436 C 328.892 188.418,328.869 188.188,328.501 187.477 C 328.235 186.963,328.091 186.246,328.182 185.885 C 328.273 185.524,328.148 184.846,327.905 184.378 C 327.663 183.911,327.464 183.137,327.464 182.659 C 327.464 182.182,327.344 181.791,327.197 181.791 C 327.050 181.791,326.935 181.622,326.943 181.415 C 326.985 180.286,326.772 178.407,326.654 178.860 C 326.371 179.946,325.959 178.986,325.959 177.241 C 325.959 176.247,325.839 175.509,325.692 175.600 C 325.546 175.691,325.431 175.597,325.439 175.392 C 325.503 173.596,325.328 172.792,324.906 172.954 C 324.360 173.163,324.297 172.438,324.816 171.919 C 325.097 171.638,325.097 171.558,324.816 171.558 C 324.589 171.558,324.454 171.062,324.454 170.228 C 324.454 169.497,324.316 168.853,324.147 168.796 C 323.978 168.740,323.820 168.181,323.797 167.554 C 323.773 166.927,323.658 166.570,323.540 166.761 C 323.220 167.278,323.039 166.757,322.990 165.176 C 322.966 164.398,322.811 163.407,322.647 162.975 C 322.482 162.542,322.348 161.706,322.348 161.117 C 322.348 160.200,322.283 160.100,321.896 160.421 C 321.503 160.748,321.445 160.542,321.445 158.821 C 321.445 157.734,321.309 156.761,321.144 156.659 C 320.978 156.557,320.829 155.770,320.813 154.911 C 320.791 153.774,320.726 153.552,320.574 154.098 C 320.009 156.127,319.943 150.220,319.938 97.849 C 319.936 66.876,319.822 41.535,319.686 41.535 C 319.550 41.535,319.424 41.366,319.406 41.159 C 319.321 40.182,319.105 39.601,318.785 39.495 C 318.592 39.430,318.435 39.134,318.435 38.836 C 318.435 38.281,317.001 37.120,316.503 37.271 C 316.351 37.317,316.401 37.144,316.615 36.887 C 316.940 36.496,316.923 36.418,316.515 36.418 C 316.247 36.418,316.027 36.283,316.027 36.117 C 316.027 35.952,315.756 35.816,315.425 35.816 C 315.094 35.816,314.823 35.707,314.823 35.573 C 314.823 35.264,312.832 34.380,311.565 34.126 C 311.033 34.020,310.524 33.815,310.435 33.671 C 310.208 33.304,309.707 33.343,309.707 33.727 C 309.707 33.903,309.863 33.949,310.054 33.831 C 310.269 33.698,310.320 33.749,310.187 33.964 C 309.862 34.489,309.007 34.398,309.213 33.860 C 309.364 33.468,308.622 33.409,303.602 33.413 C 300.148 33.416,297.987 33.525,298.237 33.683 C 298.467 33.829,298.971 33.914,299.357 33.871 C 299.743 33.829,299.993 33.900,299.913 34.030 C 299.679 34.408,288.036 34.388,288.036 34.010 C 288.036 33.783,287.861 33.782,287.441 34.007 C 286.951 34.269,286.878 34.242,287.027 33.854 C 287.183 33.446,286.888 33.394,284.838 33.470 C 283.139 33.534,282.489 33.666,282.543 33.935 C 282.585 34.142,282.483 34.312,282.318 34.312 C 282.152 34.312,282.017 34.199,282.017 34.061 C 282.017 33.923,281.847 33.793,281.640 33.772 C 281.433 33.751,280.858 33.659,280.361 33.567 C 279.721 33.449,279.627 33.474,280.038 33.653 C 281.150 34.137,279.718 34.312,274.636 34.312 C 270.276 34.312,268.329 34.026,269.898 33.617 C 270.190 33.541,269.391 33.463,268.121 33.443 C 266.523 33.419,265.772 33.524,265.676 33.785 C 265.566 34.086,265.458 34.086,265.139 33.785 C 264.571 33.248,262.013 33.302,261.550 33.860 C 261.004 34.518,251.166 34.537,251.418 33.879 C 251.555 33.524,251.130 33.448,249.043 33.454 L 246.501 33.461 246.467 34.413 C 246.448 34.937,246.399 38.141,246.359 41.535 C 246.265 49.395,245.979 50.570,243.489 53.328 C 238.782 58.544,231.697 58.637,227.117 53.543 C 224.645 50.794,224.251 49.037,224.237 40.709 C 224.225 33.288,224.280 33.613,223.025 33.526 C 222.445 33.486,222.210 33.521,222.502 33.604 C 223.946 34.015,222.265 34.312,218.492 34.312 C 214.077 34.312,212.609 33.816,216.479 33.632 C 217.679 33.575,216.678 33.501,214.256 33.468 C 210.885 33.423,209.651 33.512,209.002 33.849 C 208.115 34.309,207.518 34.183,208.286 33.698 C 208.595 33.502,208.298 33.416,207.299 33.413 C 206.263 33.410,205.869 33.526,205.869 33.835 C 205.869 34.186,204.913 34.268,200.476 34.298 C 195.640 34.330,193.897 34.105,195.107 33.605 C 195.315 33.519,193.386 33.455,190.820 33.463 C 188.254 33.470,186.416 33.573,186.735 33.691 C 187.900 34.121,186.331 34.312,181.616 34.312 C 177.691 34.312,176.975 34.242,176.975 33.860 C 176.975 33.356,176.513 33.320,174.651 33.681 C 173.945 33.817,173.451 33.812,173.540 33.668 C 173.628 33.525,173.353 33.409,172.930 33.409 C 172.506 33.409,172.150 33.510,172.139 33.634 C 172.127 33.758,172.057 34.266,171.983 34.763 C 171.909 35.260,171.817 38.713,171.778 42.438 C 171.712 48.869,171.672 49.282,170.999 50.650 C 167.253 58.258,157.460 59.559,152.405 53.120 C 150.159 50.260,149.913 49.062,149.871 40.817 C 149.850 36.587,149.716 33.409,149.559 33.409 C 149.409 33.409,149.285 33.612,149.285 33.860 C 149.285 34.243,148.531 34.312,144.301 34.312 C 141.032 34.312,139.382 34.207,139.505 34.008 C 139.792 33.544,138.857 33.315,138.243 33.699 C 137.768 33.995,137.790 34.014,138.412 33.842 C 138.897 33.708,139.061 33.752,138.921 33.978 C 138.620 34.466,137.556 34.385,137.355 33.860 C 137.228 33.529,136.707 33.409,135.408 33.409 C 134.032 33.409,133.634 33.510,133.634 33.860 C 133.634 34.438,133.211 34.438,132.731 33.860 C 132.512 33.595,131.905 33.423,131.265 33.443 C 130.664 33.463,130.412 33.541,130.703 33.617 C 132.273 34.026,130.325 34.312,125.959 34.312 C 121.671 34.312,119.523 34.007,121.215 33.640 C 121.507 33.577,120.156 33.515,118.213 33.502 C 116.271 33.490,114.751 33.593,114.837 33.732 C 114.923 33.871,114.312 33.904,113.478 33.805 C 112.413 33.679,111.964 33.731,111.964 33.981 C 111.964 34.591,102.007 34.392,101.555 33.774 C 101.246 33.352,100.895 33.333,98.721 33.620 C 97.187 33.822,95.881 33.845,95.300 33.678 C 94.082 33.329,92.701 33.333,92.701 33.686 C 92.701 34.283,90.808 34.408,90.391 33.838 C 90.038 33.355,89.992 33.350,89.992 33.793 M125.132 33.626 C 125.670 33.693,126.550 33.693,127.088 33.626 C 127.626 33.560,127.186 33.505,126.110 33.505 C 125.034 33.505,124.594 33.560,125.132 33.626 M182.622 33.621 C 182.996 33.693,183.538 33.691,183.826 33.615 C 184.114 33.540,183.807 33.481,183.145 33.484 C 182.483 33.488,182.248 33.549,182.622 33.621 M193.228 34.011 C 192.639 34.391,192.024 34.391,192.024 34.011 C 192.024 33.845,192.397 33.712,192.852 33.714 C 193.497 33.718,193.580 33.783,193.228 34.011 M273.490 79.915 C 276.416 82.969,274.596 88.259,266.667 99.746 C 263.565 104.239,256.158 112.952,249.507 119.931 C 244.805 124.865,244.947 124.689,245.131 125.356 C 245.223 125.688,245.375 126.501,245.470 127.163 C 245.566 127.825,245.832 129.180,246.063 130.173 C 246.294 131.166,246.677 133.062,246.915 134.387 C 247.570 138.031,248.571 143.116,249.197 145.974 C 249.505 147.381,249.846 149.181,249.955 149.974 C 250.064 150.767,250.337 151.854,250.561 152.391 C 250.786 152.929,251.123 154.494,251.312 155.870 C 251.500 157.246,251.797 158.731,251.972 159.171 C 252.147 159.610,252.410 160.918,252.558 162.077 C 253.050 165.946,253.158 166.588,253.422 167.193 C 253.567 167.524,253.823 168.676,253.992 169.752 C 254.398 172.340,254.803 174.312,255.042 174.868 C 255.148 175.117,255.358 176.200,255.509 177.276 C 255.659 178.352,255.939 179.774,256.132 180.436 C 256.324 181.099,256.668 182.656,256.896 183.898 C 257.510 187.245,257.837 188.810,258.028 189.315 C 258.121 189.564,258.267 190.444,258.351 191.272 C 258.435 192.099,258.783 194.054,259.124 195.615 C 260.184 200.469,260.233 200.355,254.217 207.073 C 253.698 207.652,252.880 208.668,252.401 209.330 C 250.881 211.427,248.863 213.357,248.383 213.173 C 248.137 213.078,247.027 211.159,245.916 208.908 C 244.805 206.657,240.944 198.992,237.337 191.874 C 233.729 184.755,229.636 176.629,228.241 173.815 C 226.846 171.001,225.552 168.427,225.367 168.096 C 225.181 167.765,223.282 164.041,221.147 159.819 C 216.904 151.432,217.069 151.664,216.054 152.656 C 215.664 153.037,214.872 153.711,214.294 154.154 C 211.042 156.647,204.567 161.712,204.364 161.922 C 204.002 162.296,201.969 163.935,201.184 164.485 C 200.712 164.816,199.642 165.628,198.808 166.290 C 197.974 166.953,196.546 168.055,195.636 168.740 C 194.725 169.425,193.710 170.242,193.378 170.555 C 193.047 170.868,192.235 171.527,191.573 172.018 C 190.911 172.510,189.624 173.499,188.713 174.216 C 186.919 175.630,186.811 175.715,184.800 177.268 C 184.055 177.843,183.378 178.386,183.296 178.474 C 183.213 178.562,182.336 179.236,181.347 179.972 C 180.358 180.708,179.274 181.538,178.939 181.816 C 178.604 182.093,177.449 183.051,176.373 183.943 C 175.297 184.836,173.493 186.220,172.364 187.019 C 169.846 188.802,169.814 188.882,170.881 190.704 C 171.354 191.513,172.997 194.748,174.531 197.893 C 176.066 201.038,177.568 204.086,177.868 204.665 C 178.169 205.245,179.045 206.920,179.815 208.389 C 181.517 211.637,181.922 210.706,176.385 216.270 C 170.953 221.729,171.072 221.691,169.392 218.510 C 168.736 217.269,167.479 214.898,166.599 213.243 C 165.719 211.588,164.108 208.463,163.018 206.299 C 160.108 200.518,155.255 195.645,150.284 193.512 C 148.493 192.744,145.303 191.282,143.196 190.264 C 141.088 189.246,139.312 188.412,139.248 188.412 C 139.184 188.412,137.454 187.615,135.405 186.641 C 133.355 185.666,131.409 184.818,131.079 184.756 C 129.657 184.488,130.287 183.574,135.562 178.252 L 140.847 172.920 141.831 173.429 C 142.372 173.709,144.101 174.418,145.673 175.005 C 147.246 175.592,148.916 176.275,149.385 176.523 C 149.853 176.772,150.370 176.975,150.532 176.975 C 150.815 176.975,152.428 177.666,155.838 179.249 C 156.711 179.654,157.666 179.985,157.960 179.985 C 158.254 179.985,158.624 180.105,158.781 180.253 C 158.938 180.400,159.931 180.831,160.987 181.210 L 162.907 181.900 164.298 180.406 C 165.063 179.584,166.366 178.056,167.193 177.010 C 168.021 175.964,168.970 174.817,169.301 174.461 C 169.633 174.106,170.377 173.206,170.956 172.461 C 172.329 170.697,172.850 170.064,175.031 167.514 C 176.031 166.344,177.062 165.080,177.321 164.704 C 177.581 164.328,178.253 163.515,178.814 162.898 C 179.963 161.634,181.490 159.640,181.490 159.402 C 181.490 159.316,181.960 158.731,182.534 158.103 C 184.949 155.459,188.749 151.032,191.129 148.089 C 192.532 146.354,193.950 144.600,194.281 144.191 C 194.612 143.781,195.427 142.830,196.091 142.077 C 200.532 137.042,201.052 136.042,199.231 136.042 C 199.079 136.042,197.498 135.351,195.716 134.505 C 189.895 131.744,184.215 129.120,184.060 129.120 C 184.008 129.120,182.526 128.442,180.767 127.615 C 179.008 126.787,177.518 126.110,177.456 126.110 C 177.331 126.110,171.952 123.620,168.698 122.057 C 167.540 121.500,165.982 120.775,165.237 120.445 C 159.974 118.116,151.413 114.234,150.790 113.895 C 150.376 113.669,148.548 112.807,146.727 111.978 C 140.795 109.280,140.914 109.874,145.523 105.955 C 147.509 104.266,150.354 101.838,151.843 100.558 C 156.483 96.575,155.946 96.812,159.082 97.371 C 160.564 97.635,162.927 98.040,164.334 98.270 C 165.741 98.501,168.856 99.043,171.257 99.475 C 173.657 99.907,176.298 100.371,177.126 100.505 C 180.358 101.028,186.208 102.092,187.208 102.339 C 187.788 102.481,189.549 102.819,191.121 103.089 C 194.362 103.646,196.018 103.946,199.248 104.561 C 200.489 104.798,202.453 105.142,203.612 105.326 C 204.771 105.510,207.276 105.936,209.180 106.272 C 212.331 106.830,217.083 107.647,223.928 108.810 C 225.335 109.049,226.667 109.247,226.889 109.250 C 227.111 109.253,228.804 107.790,230.651 106.000 C 232.499 104.209,234.823 102.009,235.816 101.109 C 236.810 100.209,237.690 99.401,237.773 99.313 C 237.914 99.162,240.348 97.043,244.584 93.384 C 245.587 92.517,246.801 91.506,247.282 91.137 C 247.763 90.767,248.224 90.389,248.307 90.295 C 248.552 90.019,252.787 86.924,255.380 85.126 C 262.348 80.293,266.117 78.579,269.803 78.565 L 272.187 78.555 273.490 79.915 M87.284 148.664 C 87.284 148.965,87.057 149.397,86.780 149.625 C 86.328 149.995,86.297 149.961,86.475 149.285 C 86.584 148.871,86.675 148.355,86.678 148.139 C 86.680 147.922,86.817 147.828,86.983 147.931 C 87.148 148.033,87.284 148.363,87.284 148.664 M215.199 156.810 C 215.199 156.975,214.996 157.111,214.748 157.111 C 214.500 157.111,214.296 156.975,214.296 156.810 C 214.296 156.644,214.500 156.509,214.748 156.509 C 214.996 156.509,215.199 156.644,215.199 156.810 M79.157 158.866 C 79.157 159.267,79.345 159.518,79.646 159.518 C 80.064 159.518,80.076 159.443,79.731 158.992 C 79.509 158.702,79.289 158.409,79.242 158.340 C 79.196 158.271,79.157 158.508,79.157 158.866 M173.294 158.973 C 173.229 159.169,173.014 159.384,172.818 159.450 C 172.598 159.523,172.530 159.385,172.643 159.092 C 172.853 158.545,173.475 158.431,173.294 158.973 M177.577 161.588 C 177.577 161.938,176.701 162.656,176.509 162.464 C 176.237 162.191,176.730 161.324,177.158 161.324 C 177.388 161.324,177.577 161.443,177.577 161.588 M78.555 162.245 C 78.555 162.586,78.691 162.781,78.856 162.679 C 79.022 162.576,79.157 162.298,79.157 162.059 C 79.157 161.820,79.022 161.625,78.856 161.625 C 78.691 161.625,78.555 161.904,78.555 162.245 M77.652 164.786 C 77.652 165.061,77.798 165.239,77.976 165.179 C 78.154 165.120,78.299 164.943,78.299 164.786 C 78.299 164.628,78.154 164.451,77.976 164.392 C 77.798 164.332,77.652 164.510,77.652 164.786 M75.002 176.637 C 74.707 177.483,74.720 177.612,75.090 177.470 C 75.330 177.378,75.608 177.434,75.707 177.595 C 75.807 177.756,76.023 177.805,76.188 177.703 C 76.374 177.588,76.324 177.328,76.056 177.021 C 75.818 176.747,75.562 176.324,75.487 176.080 C 75.403 175.807,75.216 176.021,75.002 176.637 M68.021 207.524 C 68.021 207.773,68.288 207.976,68.614 207.976 C 69.017 207.976,69.151 207.832,69.033 207.524 C 68.938 207.276,68.671 207.073,68.440 207.073 C 68.210 207.073,68.021 207.276,68.021 207.524 M66.516 213.576 C 66.516 213.796,66.696 213.908,66.916 213.823 C 67.138 213.738,67.464 213.977,67.648 214.359 L 67.980 215.049 68.001 214.256 C 68.016 213.642,67.852 213.431,67.269 213.320 C 66.771 213.225,66.516 213.312,66.516 213.576 M337.547 227.540 C 337.649 227.705,337.454 227.840,337.113 227.840 C 336.772 227.840,336.494 227.705,336.494 227.540 C 336.494 227.374,336.689 227.239,336.927 227.239 C 337.166 227.239,337.445 227.374,337.547 227.540 M61.164 237.518 C 61.320 237.987,61.994 238.069,62.017 237.622 C 62.026 237.457,61.807 237.274,61.531 237.217 C 61.217 237.152,61.080 237.265,61.164 237.518 M59.703 244.679 C 59.703 245.280,59.842 245.509,60.175 245.460 C 60.864 245.359,60.926 244.484,60.269 244.132 C 59.777 243.869,59.703 243.941,59.703 244.679 M68.322 254.778 C 68.322 255.275,68.852 255.361,69.476 254.966 C 69.796 254.763,69.776 254.672,69.376 254.519 C 68.597 254.220,68.322 254.288,68.322 254.778 " stroke="none" fill="#047de8" fill-rule="evenodd"></path><path id="path3" d="M156.433 18.567 C 156.144 18.643,155.907 18.830,155.907 18.984 C 155.907 19.137,155.568 19.263,155.154 19.263 C 154.740 19.263,154.402 19.398,154.402 19.564 C 154.402 19.729,154.224 19.865,154.007 19.865 C 153.181 19.865,151.193 22.251,151.153 23.292 C 151.147 23.439,150.962 23.671,150.742 23.807 C 150.428 24.001,150.470 24.149,150.942 24.493 C 151.272 24.735,151.474 24.977,151.392 25.032 C 151.309 25.087,150.971 25.281,150.640 25.463 C 150.309 25.645,149.993 26.168,149.939 26.624 C 149.876 27.158,149.956 27.382,150.165 27.253 C 150.386 27.116,150.489 27.794,150.489 29.378 C 150.489 32.000,150.254 32.198,150.016 29.775 C 149.771 27.274,149.586 27.622,149.591 30.574 C 149.594 32.323,149.692 33.106,149.872 32.821 C 150.024 32.581,150.070 32.242,149.974 32.069 C 149.857 31.858,149.900 31.853,150.102 32.054 C 150.737 32.686,151.091 36.127,151.091 41.677 C 151.091 51.712,152.917 54.493,160.627 56.200 C 161.997 56.503,165.916 54.869,167.476 53.344 C 170.193 50.688,170.457 49.708,170.657 41.535 C 170.830 34.429,170.966 33.409,171.740 33.409 C 172.079 33.409,172.155 32.617,172.138 29.270 C 172.125 26.678,172.021 25.357,171.859 25.734 C 171.637 26.249,171.597 26.204,171.579 25.421 C 171.554 24.331,170.481 22.078,170.255 22.640 C 170.155 22.889,170.092 22.846,170.076 22.520 C 170.042 21.779,167.518 19.263,166.810 19.263 C 166.477 19.263,166.123 19.051,166.024 18.792 C 165.924 18.533,165.705 18.407,165.535 18.512 C 165.366 18.617,165.305 18.828,165.400 18.982 C 165.496 19.137,165.145 19.263,164.621 19.263 C 163.897 19.263,163.709 19.154,163.841 18.811 C 163.987 18.431,163.592 18.360,161.324 18.360 C 159.057 18.360,158.662 18.431,158.808 18.811 C 158.945 19.169,158.716 19.263,157.708 19.263 C 156.611 19.263,156.487 19.200,156.810 18.811 C 157.016 18.563,157.134 18.375,157.072 18.395 C 157.011 18.414,156.723 18.491,156.433 18.567 M230.381 18.802 C 230.060 19.045,229.560 19.248,229.270 19.253 C 228.980 19.258,228.743 19.398,228.743 19.564 C 228.743 19.729,228.566 19.865,228.348 19.865 C 227.875 19.865,226.336 21.412,226.336 21.888 C 226.336 22.072,226.185 22.273,226.000 22.334 C 225.816 22.395,225.621 22.844,225.568 23.331 C 225.514 23.818,225.327 24.264,225.151 24.323 C 224.975 24.381,224.831 24.562,224.831 24.723 C 224.831 24.885,224.966 24.933,225.132 24.831 C 225.297 24.728,225.433 24.788,225.433 24.963 C 225.433 25.139,225.297 25.282,225.132 25.282 C 224.733 25.282,224.748 29.510,225.158 32.957 C 225.335 34.447,225.504 38.646,225.533 42.287 L 225.587 48.909 226.469 50.414 C 229.592 55.737,233.972 57.267,239.668 55.025 C 240.894 54.542,244.303 50.694,244.516 49.553 C 244.613 49.033,244.703 45.702,244.716 42.150 C 244.743 34.826,245.393 32.169,246.949 33.028 C 247.117 33.120,247.084 33.014,246.877 32.791 C 246.635 32.529,246.499 31.418,246.497 29.661 C 246.493 27.862,246.397 27.088,246.212 27.381 C 245.797 28.036,245.553 27.230,245.662 25.562 C 245.718 24.707,245.629 24.251,245.414 24.290 C 245.231 24.324,244.914 23.988,244.712 23.543 L 244.344 22.735 245.014 23.332 L 245.683 23.928 245.265 23.175 C 244.640 22.053,241.899 19.277,241.408 19.270 C 241.173 19.266,240.727 19.033,240.417 18.753 C 239.888 18.274,239.865 18.274,240.049 18.753 C 240.214 19.181,240.047 19.263,239.009 19.263 C 238.111 19.263,237.773 19.139,237.773 18.811 C 237.773 18.443,237.268 18.360,235.032 18.360 C 232.719 18.360,232.318 18.430,232.464 18.811 C 232.595 19.152,232.410 19.263,231.707 19.263 C 230.914 19.263,230.832 19.196,231.151 18.811 C 231.631 18.232,231.142 18.226,230.381 18.802 " stroke="none" fill="#f6860c" fill-rule="evenodd"></path><path id="path4" d="M90.895 33.771 C 90.895 33.922,90.726 33.950,90.519 33.834 C 90.233 33.672,90.226 33.711,90.489 33.997 C 90.712 34.238,91.169 34.299,91.769 34.168 C 92.954 33.907,92.970 33.569,91.798 33.527 C 91.301 33.509,90.895 33.619,90.895 33.771 M94.716 33.601 C 94.453 33.864,94.762 34.313,95.202 34.307 C 95.423 34.304,95.388 34.179,95.109 33.981 C 94.760 33.732,94.862 33.691,95.561 33.801 C 96.057 33.879,97.073 33.839,97.818 33.713 C 99.098 33.496,99.056 33.482,97.040 33.446 C 95.868 33.426,94.822 33.495,94.716 33.601 M101.612 33.834 C 101.830 34.403,111.964 34.545,111.964 33.980 C 111.964 33.731,112.416 33.679,113.478 33.805 C 114.411 33.916,114.925 33.874,114.815 33.697 C 114.500 33.186,101.416 33.323,101.612 33.834 M117.758 33.616 C 118.047 33.692,118.521 33.692,118.811 33.616 C 119.101 33.540,118.864 33.478,118.284 33.478 C 117.705 33.478,117.468 33.540,117.758 33.616 M121.215 33.643 C 120.924 33.705,120.762 33.880,120.857 34.033 C 121.094 34.416,130.839 34.395,131.076 34.011 C 131.178 33.845,131.085 33.693,130.868 33.673 C 129.783 33.571,121.675 33.546,121.215 33.643 M132.731 33.860 C 132.937 34.108,133.225 34.312,133.370 34.312 C 133.515 34.312,133.634 34.108,133.634 33.860 C 133.634 33.601,133.363 33.409,132.996 33.409 C 132.462 33.409,132.418 33.483,132.731 33.860 M137.246 33.719 C 137.246 34.155,138.050 34.414,138.667 34.177 C 139.111 34.007,139.122 33.938,138.743 33.698 C 138.147 33.321,137.246 33.334,137.246 33.719 M139.453 33.849 C 139.453 34.246,140.147 34.312,144.369 34.312 C 148.402 34.312,149.285 34.235,149.285 33.886 C 149.285 33.539,148.385 33.455,144.369 33.424 C 140.131 33.391,139.453 33.450,139.453 33.849 M173.553 33.647 C 173.472 33.778,173.870 33.830,174.438 33.764 C 175.006 33.698,175.470 33.591,175.470 33.526 C 175.470 33.300,173.698 33.411,173.553 33.647 M176.975 33.923 C 176.975 34.399,186.181 34.480,186.907 34.011 C 187.484 33.638,187.427 33.633,181.565 33.578 C 177.992 33.543,176.975 33.620,176.975 33.923 M195.107 33.631 C 194.899 33.703,194.809 33.890,194.906 34.047 C 195.209 34.537,205.869 34.346,205.869 33.851 C 205.869 33.456,196.196 33.258,195.107 33.631 M208.352 33.608 C 208.145 33.691,207.976 33.871,207.976 34.007 C 207.976 34.315,209.129 34.035,209.353 33.673 C 209.527 33.392,208.977 33.356,208.352 33.608 M216.479 33.618 C 215.278 33.683,214.296 33.865,214.296 34.024 C 214.296 34.416,222.631 34.404,222.874 34.011 C 222.977 33.845,223.019 33.704,222.967 33.698 C 222.010 33.576,218.137 33.528,216.479 33.618 M251.511 33.615 C 250.936 34.191,251.756 34.312,256.246 34.312 C 260.210 34.312,261.247 34.225,261.542 33.870 C 261.925 33.408,251.971 33.155,251.511 33.615 M269.898 33.627 C 268.264 34.021,270.327 34.311,274.736 34.307 C 279.502 34.303,281.525 34.028,279.863 33.613 C 279.075 33.415,270.728 33.428,269.898 33.627 M281.099 33.694 C 281.340 33.846,281.644 33.904,281.776 33.822 C 281.909 33.741,282.017 33.817,282.017 33.993 C 282.017 34.168,282.129 34.312,282.267 34.312 C 282.405 34.312,282.518 34.108,282.518 33.860 C 282.518 33.555,282.216 33.410,281.590 33.413 C 280.909 33.417,280.778 33.491,281.099 33.694 M287.026 33.854 C 286.878 34.242,286.951 34.269,287.441 34.007 C 287.861 33.782,288.036 33.783,288.036 34.010 C 288.036 34.368,299.672 34.419,299.893 34.062 C 300.078 33.763,298.745 33.663,292.663 33.515 C 287.911 33.400,287.184 33.444,287.026 33.854 M309.324 33.590 C 308.971 33.943,309.071 34.312,309.519 34.312 C 309.747 34.312,310.120 34.074,310.347 33.785 C 310.716 33.314,310.707 33.299,310.263 33.647 C 309.918 33.916,309.731 33.934,309.654 33.703 C 309.593 33.521,309.445 33.470,309.324 33.590 M192.024 34.011 C 192.024 34.391,192.639 34.391,193.228 34.011 C 193.580 33.783,193.497 33.718,192.852 33.714 C 192.397 33.712,192.024 33.845,192.024 34.011 M264.710 79.703 C 262.294 80.710,258.239 82.952,258.239 83.281 C 258.239 83.428,258.118 83.493,260.798 81.922 C 263.198 80.516,266.483 79.205,268.473 78.861 L 269.827 78.626 268.623 78.600 C 267.865 78.583,266.416 78.992,264.710 79.703 M271.256 78.771 C 273.723 79.145,274.962 82.100,274.108 85.572 C 273.552 87.833,273.648 88.130,274.308 86.193 C 275.553 82.539,273.943 78.465,271.308 78.600 L 270.429 78.645 271.256 78.771 M256.509 84.304 C 255.805 84.802,255.229 85.277,255.229 85.358 C 255.229 85.440,255.839 85.087,256.584 84.575 C 257.329 84.062,257.938 83.582,257.938 83.507 C 257.938 83.300,257.881 83.332,256.509 84.304 M253.875 86.149 C 251.857 87.608,248.420 90.174,247.856 90.644 C 247.524 90.920,246.665 91.631,245.946 92.224 C 245.227 92.818,244.731 93.303,244.844 93.303 C 244.957 93.303,246.358 92.251,247.957 90.964 C 249.557 89.678,251.780 87.973,252.897 87.176 C 254.014 86.378,254.929 85.670,254.929 85.602 C 254.929 85.407,254.836 85.455,253.875 86.149 M272.878 88.980 C 272.593 89.578,272.415 90.123,272.483 90.191 C 272.552 90.259,272.840 89.825,273.124 89.226 C 273.408 88.628,273.586 88.083,273.518 88.015 C 273.451 87.948,273.163 88.382,272.878 88.980 M271.149 92.325 C 270.610 93.277,269.366 95.258,268.384 96.728 C 267.403 98.198,266.751 99.306,266.936 99.192 C 267.584 98.791,272.678 90.594,272.279 90.594 C 272.196 90.594,271.688 91.373,271.149 92.325 M241.027 96.400 C 239.257 97.925,237.801 99.280,237.791 99.412 C 237.781 99.544,239.263 98.341,241.084 96.738 C 243.993 94.176,244.621 93.570,244.319 93.616 C 244.278 93.622,242.796 94.875,241.027 96.400 M154.805 98.071 C 154.004 98.708,152.671 99.871,151.843 100.657 C 151.016 101.443,151.581 101.058,153.099 99.801 C 155.741 97.615,155.927 97.515,157.463 97.481 C 158.825 97.451,158.931 97.411,158.164 97.216 C 156.588 96.815,156.293 96.890,154.805 98.071 M159.243 97.629 C 159.312 97.690,160.045 97.819,160.873 97.915 C 161.888 98.032,162.133 98.005,161.625 97.833 C 160.873 97.577,159.006 97.417,159.243 97.629 M164.485 98.562 C 166.871 99.041,168.313 99.125,166.896 98.702 C 166.401 98.554,165.182 98.367,164.187 98.286 L 162.378 98.139 164.485 98.562 M171.633 99.831 C 171.922 99.907,172.397 99.907,172.686 99.831 C 172.976 99.756,172.739 99.694,172.160 99.694 C 171.580 99.694,171.343 99.756,171.633 99.831 M232.764 103.913 C 230.257 106.272,228.125 108.381,228.025 108.599 C 227.925 108.818,230.009 106.924,232.657 104.391 C 237.090 100.151,237.615 99.624,237.397 99.624 C 237.355 99.624,235.270 101.554,232.764 103.913 M264.698 101.956 C 262.776 104.533,259.709 108.265,256.816 111.546 C 255.778 112.724,254.929 113.774,254.929 113.881 C 254.929 114.423,265.289 101.968,266.475 100.000 C 267.132 98.910,266.230 99.903,264.698 101.956 M173.965 100.226 C 174.379 100.358,175.056 100.467,175.470 100.467 L 176.223 100.467 175.470 100.226 C 175.056 100.093,174.379 99.985,173.965 99.985 L 173.213 99.985 173.965 100.226 M178.330 100.996 C 180.686 101.528,181.834 101.502,179.684 100.965 C 178.774 100.738,177.690 100.560,177.276 100.570 C 176.862 100.580,177.336 100.772,178.330 100.996 M182.393 101.731 C 182.807 101.863,183.484 101.969,183.898 101.966 C 184.574 101.961,184.558 101.937,183.747 101.731 C 182.474 101.407,181.381 101.407,182.393 101.731 M145.974 105.535 C 141.655 109.242,141.490 109.467,142.664 110.071 C 144.841 111.193,147.896 112.551,148.002 112.445 C 148.069 112.378,146.827 111.709,145.243 110.959 C 141.683 109.272,141.606 109.666,146.275 105.655 C 149.678 102.732,150.451 102.003,150.113 102.040 C 150.071 102.044,148.209 103.617,145.974 105.535 M185.127 102.142 C 185.196 102.203,185.794 102.343,186.456 102.454 C 187.319 102.599,187.532 102.569,187.208 102.348 C 186.802 102.072,184.825 101.876,185.127 102.142 M193.554 103.647 C 193.623 103.708,194.221 103.840,194.883 103.941 C 195.722 104.069,195.905 104.042,195.485 103.852 C 194.908 103.590,193.295 103.419,193.554 103.647 M202.408 105.342 C 203.681 105.666,204.774 105.666,203.762 105.342 C 203.348 105.210,202.671 105.104,202.257 105.107 C 201.581 105.112,201.597 105.136,202.408 105.342 M205.342 105.851 C 205.632 105.927,206.106 105.927,206.396 105.851 C 206.685 105.775,206.448 105.713,205.869 105.713 C 205.290 105.713,205.053 105.775,205.342 105.851 M207.076 106.033 C 207.286 106.263,212.828 107.212,212.993 107.047 C 213.066 106.974,212.204 106.759,211.077 106.569 C 209.951 106.379,208.555 106.142,207.976 106.044 C 207.397 105.945,206.992 105.940,207.076 106.033 M217.126 107.899 C 219.263 108.366,222.017 108.748,221.815 108.550 C 221.643 108.380,216.267 107.436,215.726 107.480 C 215.519 107.497,216.149 107.685,217.126 107.899 M222.498 108.861 C 222.788 108.936,223.262 108.936,223.552 108.861 C 223.841 108.785,223.604 108.723,223.025 108.723 C 222.445 108.723,222.208 108.785,222.498 108.861 M224.831 109.257 C 225.826 109.573,227.169 109.613,227.339 109.330 C 227.414 109.206,226.711 109.085,225.777 109.061 C 224.554 109.030,224.289 109.085,224.831 109.257 M148.984 113.017 C 149.398 113.254,149.872 113.447,150.038 113.447 C 150.203 113.447,150.000 113.254,149.586 113.017 C 149.172 112.781,148.698 112.587,148.533 112.587 C 148.367 112.587,148.570 112.781,148.984 113.017 M150.640 113.724 C 151.038 114.126,164.372 120.153,164.524 120.000 C 164.589 119.935,162.169 118.758,159.146 117.384 C 151.161 113.756,150.306 113.388,150.640 113.724 M250.015 119.037 C 247.561 121.603,245.632 123.702,245.727 123.702 C 245.901 123.702,250.965 118.492,253.407 115.801 C 256.073 112.863,254.328 114.527,250.015 119.037 M165.405 120.532 C 165.727 120.775,166.193 120.978,166.441 120.982 C 166.689 120.986,166.504 120.787,166.030 120.540 C 164.933 119.967,164.654 119.964,165.405 120.532 M168.247 121.698 C 168.247 121.859,177.109 126.110,177.443 126.110 C 177.497 126.110,178.735 126.666,180.193 127.346 C 184.573 129.387,186.091 130.036,186.210 129.918 C 186.271 129.856,183.102 128.343,179.166 126.555 C 175.229 124.768,171.206 122.921,170.225 122.450 C 168.405 121.578,168.247 121.518,168.247 121.698 M244.843 125.508 C 244.929 125.922,245.132 126.802,245.294 127.464 L 245.589 128.668 245.446 127.217 C 245.367 126.418,245.164 125.538,244.995 125.260 C 244.746 124.852,244.717 124.899,244.843 125.508 M245.771 130.173 C 246.518 134.136,247.037 136.411,247.068 135.850 C 247.110 135.078,245.964 129.384,245.717 129.140 C 245.622 129.046,245.647 129.511,245.771 130.173 M188.412 131.076 C 188.826 131.313,189.300 131.506,189.466 131.506 C 189.631 131.506,189.428 131.313,189.014 131.076 C 188.600 130.839,188.126 130.646,187.961 130.646 C 187.795 130.646,187.998 130.839,188.412 131.076 M194.883 134.074 C 197.035 135.116,199.135 136.056,199.549 136.163 C 200.390 136.381,199.399 135.876,194.624 133.652 C 192.826 132.815,191.268 132.141,191.162 132.155 C 191.057 132.169,192.731 133.033,194.883 134.074 M247.259 137.698 C 247.374 138.360,248.137 142.355,248.956 146.576 C 249.774 150.798,250.850 156.351,251.345 158.916 C 251.841 161.482,252.377 164.191,252.536 164.936 C 252.946 166.858,254.021 172.233,254.492 174.718 C 254.952 177.147,256.584 185.563,258.097 193.315 C 259.576 200.891,259.953 199.623,254.166 206.546 C 251.434 209.816,249.099 212.489,248.978 212.486 C 248.360 212.473,247.507 210.917,240.482 196.990 C 215.522 147.510,217.519 151.226,216.305 152.001 C 215.922 152.245,210.625 156.373,204.535 161.174 C 198.445 165.974,191.807 171.189,189.783 172.761 C 187.760 174.334,184.355 177.004,182.217 178.694 C 180.079 180.385,176.637 183.106,174.567 184.742 C 172.498 186.378,170.535 188.022,170.205 188.395 L 169.605 189.074 175.096 199.960 C 178.116 205.948,180.587 210.978,180.587 211.139 C 180.587 211.632,171.746 220.316,171.243 220.316 C 170.725 220.316,170.201 219.370,163.274 205.943 C 161.275 202.066,161.110 201.849,157.433 198.264 L 153.649 194.575 148.683 192.353 C 142.345 189.516,140.841 188.829,136.795 186.928 C 134.974 186.072,132.981 185.142,132.367 184.861 C 131.752 184.579,131.171 184.153,131.074 183.914 C 130.883 183.439,139.221 174.836,140.564 174.123 C 141.305 173.729,145.299 175.104,151.843 178.005 C 152.506 178.298,153.928 178.874,155.004 179.285 C 156.080 179.696,157.366 180.219,157.863 180.446 C 163.007 182.805,163.184 182.754,167.202 177.728 C 168.927 175.570,184.058 157.144,187.963 152.445 C 192.324 147.197,199.594 138.357,200.091 137.698 C 200.922 136.593,198.523 139.210,196.388 141.735 C 195.229 143.105,194.146 144.383,193.980 144.574 C 193.815 144.765,192.532 146.343,191.129 148.081 C 188.757 151.022,184.979 155.426,182.534 158.103 C 181.960 158.731,181.490 159.316,181.490 159.402 C 181.490 159.640,179.963 161.634,178.814 162.898 C 178.253 163.515,177.581 164.328,177.321 164.704 C 177.062 165.080,176.031 166.344,175.031 167.514 C 172.850 170.064,172.329 170.697,170.956 172.461 C 170.377 173.206,169.633 174.106,169.301 174.461 C 168.970 174.817,168.021 175.964,167.193 177.010 C 166.366 178.056,165.063 179.584,164.298 180.406 L 162.907 181.900 160.987 181.210 C 159.931 180.831,158.938 180.400,158.781 180.253 C 158.624 180.105,158.254 179.985,157.960 179.985 C 157.666 179.985,156.711 179.654,155.838 179.249 C 152.428 177.666,150.815 176.975,150.532 176.975 C 150.370 176.975,149.853 176.772,149.385 176.523 C 148.916 176.275,147.246 175.592,145.673 175.005 C 144.101 174.418,142.372 173.709,141.831 173.429 L 140.847 172.920 135.562 178.252 C 130.287 183.574,129.657 184.488,131.079 184.756 C 131.409 184.818,133.355 185.666,135.405 186.641 C 137.454 187.615,139.184 188.412,139.248 188.412 C 139.312 188.412,141.088 189.246,143.196 190.264 C 145.303 191.282,148.493 192.744,150.284 193.512 C 155.255 195.645,160.108 200.518,163.018 206.299 C 164.108 208.463,165.719 211.588,166.599 213.243 C 167.479 214.898,168.736 217.269,169.392 218.510 C 171.072 221.691,170.953 221.729,176.385 216.270 C 181.922 210.706,181.517 211.637,179.815 208.389 C 179.045 206.920,178.169 205.245,177.868 204.665 C 177.568 204.086,176.066 201.038,174.531 197.893 C 172.997 194.748,171.354 191.513,170.881 190.704 C 169.814 188.882,169.846 188.802,172.364 187.019 C 173.493 186.220,175.297 184.836,176.373 183.943 C 177.449 183.051,178.604 182.093,178.939 181.816 C 179.274 181.538,180.358 180.708,181.347 179.972 C 182.336 179.236,183.213 178.562,183.296 178.474 C 183.378 178.386,184.055 177.843,184.800 177.268 C 186.811 175.715,186.919 175.630,188.713 174.216 C 189.624 173.499,190.911 172.510,191.573 172.018 C 192.235 171.527,193.047 170.868,193.378 170.555 C 193.710 170.242,194.725 169.425,195.636 168.740 C 196.546 168.055,197.974 166.953,198.808 166.290 C 199.642 165.628,200.712 164.816,201.184 164.485 C 201.969 163.935,204.002 162.296,204.364 161.922 C 204.567 161.712,211.042 156.647,214.294 154.154 C 214.872 153.711,215.664 153.037,216.054 152.656 C 217.069 151.664,216.904 151.432,221.147 159.819 C 223.282 164.041,225.181 167.765,225.367 168.096 C 225.552 168.427,226.846 171.001,228.241 173.815 C 229.636 176.629,233.729 184.755,237.337 191.874 C 240.944 198.992,244.805 206.657,245.916 208.908 C 247.027 211.159,248.137 213.078,248.383 213.173 C 248.863 213.357,250.881 211.427,252.401 209.330 C 252.880 208.668,253.698 207.652,254.217 207.073 C 260.233 200.355,260.184 200.469,259.124 195.615 C 258.783 194.054,258.435 192.099,258.351 191.272 C 258.267 190.444,258.121 189.564,258.028 189.315 C 257.837 188.810,257.510 187.245,256.896 183.898 C 256.668 182.656,256.324 181.099,256.132 180.436 C 255.939 179.774,255.659 178.352,255.509 177.276 C 255.358 176.200,255.148 175.117,255.042 174.868 C 254.803 174.312,254.398 172.340,253.992 169.752 C 253.823 168.676,253.567 167.524,253.422 167.193 C 253.158 166.588,253.050 165.946,252.558 162.077 C 252.410 160.918,252.147 159.610,251.972 159.171 C 251.797 158.731,251.500 157.246,251.312 155.870 C 251.123 154.494,250.786 152.929,250.561 152.391 C 250.337 151.854,250.064 150.767,249.955 149.974 C 249.846 149.181,249.505 147.381,249.197 145.974 C 248.889 144.567,248.358 141.935,248.016 140.126 C 247.674 138.316,247.317 136.759,247.222 136.665 C 247.127 136.571,247.143 137.035,247.259 137.698 M86.678 148.139 C 86.675 148.355,86.584 148.871,86.475 149.285 C 86.297 149.961,86.328 149.995,86.780 149.625 C 87.337 149.167,87.451 148.220,86.983 147.931 C 86.817 147.828,86.680 147.922,86.678 148.139 M80.662 152.270 C 80.662 153.084,80.522 153.796,80.351 153.854 C 80.179 153.911,80.030 154.735,80.019 155.684 C 80.003 156.952,79.886 157.412,79.578 157.412 C 79.029 157.412,79.043 158.017,79.611 158.828 C 80.033 159.431,80.018 159.483,79.385 159.572 C 78.615 159.682,78.231 161.239,78.876 161.637 C 79.084 161.766,79.157 162.095,79.044 162.390 C 78.933 162.679,78.757 162.830,78.653 162.726 C 78.549 162.622,78.280 162.892,78.055 163.325 C 77.695 164.019,77.709 164.159,78.173 164.498 C 78.658 164.853,78.635 164.913,77.875 165.259 C 77.144 165.592,77.050 165.798,77.050 167.066 C 77.050 167.853,76.915 168.543,76.749 168.598 C 76.583 168.653,76.382 169.443,76.301 170.353 C 76.221 171.262,76.018 172.052,75.851 172.108 C 75.344 172.277,75.470 176.538,75.994 176.972 C 76.240 177.177,76.360 177.476,76.261 177.637 C 76.144 177.826,75.971 177.822,75.776 177.627 C 75.121 176.972,74.643 177.629,74.638 179.189 C 74.635 180.300,74.551 180.610,74.342 180.286 C 74.075 179.873,73.839 182.837,74.032 184.182 C 74.085 184.556,74.022 184.558,73.589 184.199 C 73.156 183.839,73.093 183.841,73.147 184.215 C 73.318 185.409,73.109 187.527,72.837 187.359 C 72.666 187.253,72.536 187.506,72.536 187.943 C 72.536 188.367,72.681 188.713,72.858 188.713 C 73.036 188.713,72.978 188.916,72.729 189.165 C 72.481 189.413,72.149 189.616,71.991 189.616 C 71.833 189.616,71.710 190.238,71.719 190.997 C 71.727 191.795,71.574 192.476,71.356 192.611 C 71.148 192.740,71.003 193.304,71.035 193.864 C 71.151 195.944,71.043 196.539,70.546 196.539 C 70.171 196.539,70.089 196.773,70.184 197.584 C 70.263 198.256,70.167 198.682,69.916 198.778 C 69.457 198.954,69.387 200.932,69.829 201.205 C 70.017 201.322,69.961 201.564,69.681 201.844 C 69.433 202.093,69.103 202.217,68.948 202.122 C 68.785 202.021,68.699 202.521,68.743 203.306 C 68.798 204.273,68.705 204.665,68.420 204.665 C 68.155 204.665,68.021 205.069,68.021 205.869 C 68.021 206.697,68.152 207.073,68.440 207.073 C 68.671 207.073,68.941 207.286,69.041 207.546 C 69.183 207.916,69.044 207.998,68.396 207.925 C 67.862 207.865,67.596 207.964,67.645 208.205 C 67.686 208.410,67.596 208.578,67.445 208.578 C 67.293 208.578,67.210 209.189,67.261 209.935 C 67.311 210.681,67.211 211.380,67.038 211.486 C 66.842 211.608,66.816 211.533,66.968 211.287 C 67.116 211.047,67.093 210.966,66.909 211.080 C 66.278 211.469,66.619 213.236,67.344 213.339 C 67.857 213.412,68.019 213.631,68.012 214.242 C 68.003 214.996,67.981 215.009,67.667 214.447 C 67.482 214.116,67.281 213.787,67.221 213.716 C 67.018 213.477,65.882 214.904,66.054 215.182 C 66.148 215.334,66.087 215.544,65.919 215.648 C 65.433 215.948,65.564 216.402,66.140 216.412 C 66.629 216.421,66.627 216.444,66.119 216.740 C 65.713 216.976,65.584 217.383,65.620 218.311 C 65.691 220.119,65.649 220.373,65.312 220.166 C 65.123 220.049,65.011 220.711,65.011 221.944 C 65.011 223.590,64.936 223.880,64.548 223.731 C 64.292 223.633,64.105 223.671,64.132 223.816 C 64.313 224.811,64.070 226.047,63.732 225.844 C 63.513 225.712,63.544 225.855,63.807 226.185 C 64.070 226.516,64.102 226.658,63.883 226.526 C 63.607 226.360,63.506 226.618,63.506 227.490 C 63.506 228.295,63.353 228.738,63.032 228.861 C 62.685 228.994,62.581 229.373,62.646 230.265 C 62.705 231.088,62.590 231.578,62.292 231.766 C 61.907 232.010,61.908 232.046,62.302 232.054 C 62.665 232.062,62.675 232.113,62.352 232.318 C 62.131 232.458,61.962 232.659,61.976 232.765 C 62.171 234.226,61.940 235.967,61.550 235.967 C 60.855 235.967,61.009 237.077,61.731 237.266 C 62.080 237.357,62.274 237.575,62.164 237.754 C 62.054 237.931,61.660 238.000,61.288 237.906 C 60.663 237.749,60.605 237.848,60.536 239.180 C 60.493 240.011,60.246 240.871,59.952 241.206 C 59.672 241.527,59.598 241.699,59.788 241.588 C 59.977 241.478,60.216 241.605,60.318 241.871 C 60.452 242.220,60.374 242.305,60.037 242.175 C 59.658 242.030,59.583 242.217,59.639 243.164 C 59.687 243.981,59.825 244.286,60.100 244.181 C 60.554 244.007,60.948 244.811,60.647 245.297 C 60.514 245.512,60.321 245.526,60.094 245.338 C 59.840 245.127,59.732 245.365,59.699 246.205 C 59.664 247.085,59.754 247.324,60.075 247.200 C 60.333 247.102,60.497 247.234,60.497 247.540 C 60.497 247.816,60.361 247.958,60.196 247.856 C 59.824 247.626,59.812 247.852,60.161 248.537 C 60.307 248.824,60.605 249.466,60.824 249.962 C 61.043 250.459,61.488 251.170,61.815 251.543 C 62.141 251.915,62.282 252.222,62.129 252.225 C 61.661 252.235,64.677 254.026,65.161 254.026 C 65.410 254.026,65.613 254.229,65.613 254.477 C 65.613 254.725,65.816 254.929,66.065 254.929 C 66.313 254.929,66.516 255.064,66.516 255.229 C 66.516 255.395,66.843 255.530,67.244 255.530 C 67.644 255.530,68.039 255.700,68.123 255.907 C 68.244 256.208,68.279 256.208,68.298 255.907 C 68.328 255.434,69.117 255.413,69.404 255.878 C 69.532 256.085,69.487 256.144,69.292 256.024 C 69.113 255.912,68.895 255.936,68.808 256.076 C 68.366 256.792,80.464 256.494,81.005 255.776 L 81.531 255.079 131.435 254.916 C 180.705 254.755,182.694 254.712,182.694 253.787 C 182.694 253.530,173.222 243.828,161.646 232.227 C 150.070 220.627,127.664 198.168,111.854 182.318 C 93.276 163.691,82.901 153.499,82.520 153.499 C 81.852 153.499,81.565 152.948,81.565 151.668 C 81.565 151.088,81.412 150.790,81.114 150.790 C 80.774 150.790,80.662 151.155,80.662 152.270 M319.940 153.614 C 319.940 154.028,320.075 154.450,320.241 154.552 C 320.411 154.657,320.542 154.411,320.542 153.986 C 320.542 153.572,320.406 153.150,320.241 153.047 C 320.071 152.942,319.940 153.189,319.940 153.614 M214.296 156.810 C 214.296 156.975,214.500 157.111,214.748 157.111 C 214.996 157.111,215.199 156.975,215.199 156.810 C 215.199 156.644,214.996 156.509,214.748 156.509 C 214.500 156.509,214.296 156.644,214.296 156.810 M172.643 159.092 C 172.530 159.385,172.598 159.523,172.818 159.450 C 173.268 159.300,173.515 158.616,173.120 158.616 C 172.958 158.616,172.744 158.830,172.643 159.092 M321.445 160.157 C 321.445 160.689,321.520 160.734,321.893 160.424 C 322.346 160.048,322.249 159.518,321.728 159.518 C 321.572 159.518,321.445 159.806,321.445 160.157 M176.549 161.819 C 176.444 162.091,176.427 162.381,176.509 162.464 C 176.701 162.656,177.577 161.938,177.577 161.588 C 177.577 161.121,176.745 161.307,176.549 161.819 M323.066 165.970 C 322.951 166.268,323.060 166.680,323.321 166.942 C 323.726 167.346,323.766 167.308,323.687 166.591 C 323.574 165.563,323.320 165.308,323.066 165.970 M325.959 178.294 C 325.959 178.708,326.095 179.130,326.260 179.233 C 326.430 179.338,326.561 179.091,326.561 178.666 C 326.561 178.252,326.426 177.830,326.260 177.728 C 326.090 177.623,325.959 177.869,325.959 178.294 M328.969 193.002 C 328.969 193.272,329.114 193.583,329.290 193.692 C 329.806 194.011,329.857 193.725,329.396 193.095 C 329.039 192.607,328.969 192.591,328.969 193.002 M329.753 196.415 C 329.496 197.085,329.516 197.141,330.023 197.141 C 330.271 197.141,330.474 196.946,330.474 196.707 C 330.474 196.070,329.965 195.864,329.753 196.415 M331.398 202.483 C 331.386 203.021,331.512 203.461,331.678 203.461 C 332.035 203.461,332.035 202.938,331.678 202.107 C 331.461 201.602,331.416 201.663,331.398 202.483 M332.773 208.486 C 332.474 208.785,332.547 209.537,332.856 209.346 C 333.008 209.253,333.200 209.346,333.284 209.554 C 333.368 209.762,333.447 209.636,333.460 209.273 C 333.485 208.586,333.106 208.153,332.773 208.486 M334.308 214.797 C 334.227 214.936,334.256 215.310,334.372 215.629 C 334.574 216.185,334.591 216.186,334.795 215.654 C 335.011 215.092,334.579 214.332,334.308 214.797 M335.892 220.868 C 335.892 221.226,336.015 221.520,336.166 221.520 C 336.472 221.520,336.426 220.750,336.101 220.425 C 335.986 220.310,335.892 220.509,335.892 220.868 M336.494 227.540 C 336.494 227.705,336.772 227.840,337.113 227.840 C 337.454 227.840,337.649 227.705,337.547 227.540 C 337.445 227.374,337.166 227.239,336.927 227.239 C 336.689 227.239,336.494 227.374,336.494 227.540 M338.199 232.556 C 337.841 232.914,337.987 233.860,338.400 233.860 C 338.621 233.860,338.801 233.663,338.801 233.422 C 338.801 233.181,338.665 233.068,338.499 233.170 C 338.319 233.281,338.275 233.154,338.389 232.856 C 338.593 232.326,338.529 232.226,338.199 232.556 M339.503 239.109 C 339.503 239.513,339.639 239.928,339.804 240.030 C 339.980 240.139,340.105 239.833,340.105 239.295 C 340.105 238.789,339.970 238.375,339.804 238.375 C 339.639 238.375,339.503 238.705,339.503 239.109 M340.105 242.137 C 340.105 242.605,340.276 242.889,340.557 242.889 C 340.805 242.889,341.008 242.686,341.008 242.438 C 341.008 242.190,340.839 241.984,340.632 241.982 C 340.381 241.979,340.406 241.880,340.707 241.685 C 341.093 241.436,341.082 241.393,340.632 241.389 C 340.270 241.386,340.105 241.619,340.105 242.137 M340.557 247.103 C 340.444 247.459,340.419 247.818,340.502 247.901 C 340.585 247.984,340.745 247.760,340.858 247.404 C 340.971 247.048,340.996 246.689,340.913 246.606 C 340.830 246.523,340.670 246.747,340.557 247.103 M339.503 249.511 C 339.503 249.842,339.639 250.113,339.804 250.113 C 339.970 250.113,340.105 249.842,340.105 249.511 C 340.105 249.180,339.970 248.909,339.804 248.909 C 339.639 248.909,339.503 249.180,339.503 249.511 M335.989 253.934 C 335.628 254.004,335.176 254.251,334.984 254.483 C 334.488 255.080,335.843 254.805,336.466 254.182 C 336.718 253.930,336.861 253.743,336.784 253.766 C 336.707 253.788,336.349 253.864,335.989 253.934 M69.376 254.519 C 69.776 254.672,69.796 254.763,69.476 254.966 C 68.852 255.361,68.322 255.275,68.322 254.778 C 68.322 254.288,68.597 254.220,69.376 254.519 M333.647 254.908 C 333.442 255.240,333.916 255.600,334.194 255.322 C 334.480 255.035,334.427 254.628,334.104 254.628 C 333.948 254.628,333.742 254.754,333.647 254.908 M330.173 255.831 C 330.173 256.216,331.686 256.216,332.280 255.831 C 332.611 255.618,332.389 255.538,331.452 255.535 C 330.749 255.533,330.173 255.666,330.173 255.831 " stroke="none" fill="#04a4fa" fill-rule="evenodd"></path></g></svg>